# .PCD v.7 - Point Cloud Data file format
VERSION .7
FIELDS x y z
SIZE 4 4 4
TYPE F F F
COUNT 1 1 1
WIDTH 442
HEIGHT 1
VIEWPOINT 0 0 0 1 0 0 0
POINTS 442
DATA ascii
2.895120 1.807269 2.014107
1.963318 4.004483 -0.128716
-0.407132 6.201834 1.892296
6.460760 4.593443 3.082578
2.542196 2.032839 1.436502
2.843918 1.851652 2.017441
3.372315 4.034293 1.101498
0.636460 5.844622 4.727615
2.467876 6.264459 -0.630946
3.157354 6.471447 -0.637091
2.320828 4.815625 0.219900
1.331390 6.413299 -0.400051
1.888679 8.302232 -0.928695
3.367544 4.449404 0.510331
-0.047453 5.930102 0.098252
-0.466897 8.808553 -0.436150
2.862167 3.508340 1.128893
4.162100 6.677881 0.504372
3.419505 3.004755 1.360770
0.653329 6.604453 0.614468
2.454201 7.459183 0.618692
0.664011 8.793136 0.457688
2.576624 2.386454 1.731372
1.454724 8.468350 2.425921
2.378863 3.047881 2.156270
0.140761 5.695253 2.449717
4.136330 8.181292 2.735635
6.395339 6.241413 2.746930
5.416285 6.454619 2.769051
3.382982 1.798410 2.228673
4.371624 8.069797 3.132933
1.566234 3.644635 2.536798
0.283161 8.224316 3.487036
3.821079 1.903073 2.413104
0.936167 6.731482 3.591825
4.426146 7.327806 4.065030
0.808200 6.020339 3.880603
1.741815 4.898669 3.541189
4.030513 5.205279 3.857629
-2.247920 8.534976 5.443058
2.512933 4.853354 4.113285
3.995725 6.024903 4.657031
0.597624 6.847725 5.029597
-0.308271 6.695145 5.124994
1.093162 6.361087 5.056063
-1.723568 7.308054 5.894486
-2.038548 7.595775 1.010750
-1.311601 6.764786 4.377355
0.075883 4.853343 1.508375
-2.261013 7.277331 1.379937
-1.005920 5.911109 5.010645
2.739040 7.685128 0.335569
-3.675783 7.628533 4.656216
-1.047703 5.392357 0.476217
-1.021897 5.312149 5.017891
-3.444884 7.343869 4.473468
0.195710 4.161146 3.935330
0.000505 4.873537 1.429656
-2.659420 6.427068 5.691999
-1.028857 5.290606 0.522904
-0.869442 4.939362 1.910362
-0.879748 4.670550 0.493025
-2.577168 5.848915 0.433543
-2.857551 5.875801 3.316510
-4.267752 6.678903 5.743548
-0.976236 4.626604 0.552981
-1.720674 4.763739 2.951453
-3.941576 4.991391 3.784888
-3.590943 5.807687 1.306713
-2.609397 5.150775 3.686185
-0.477725 6.242304 1.923218
-2.664475 5.083831 1.873784
-2.225987 4.807819 5.052609
-3.055862 5.205561 0.515197
-2.819819 5.088296 3.762641
-3.827883 5.382422 3.498194
-4.837363 5.766587 5.516041
-4.154808 5.537109 5.325143
-5.146515 5.655099 2.038780
-5.149695 5.595495 0.187256
-5.704369 5.729195 5.533197
-4.765937 5.430921 5.564693
-2.713033 7.689491 1.308870
-0.985788 5.406179 3.851094
-6.017505 5.548015 2.295402
-3.305776 6.875044 -0.201829
-4.411085 4.808664 0.388103
-4.463683 4.764815 3.578442
-1.711654 3.838388 2.213960
-5.688514 4.947265 4.766549
-3.769904 7.350877 0.091531
-5.525446 4.851584 5.236639
-4.060837 4.359440 4.940149
-5.649043 4.715388 0.895026
-5.302700 4.590881 5.023090
-4.547732 4.097813 -0.110680
-2.873361 3.796134 3.097536
-6.381188 4.140267 -0.420276
-2.371171 3.326909 2.804760
-2.665376 3.401826 2.293211
-5.933211 3.553811 3.999144
-3.564530 4.518443 0.446235
-5.000824 3.449931 2.586381
-7.220858 3.459715 3.837108
-7.450735 3.645409 5.116451
-6.953554 3.526092 0.731747
-6.228599 3.456286 3.595561
-7.758108 3.260596 -0.447067
-2.845019 3.107279 2.820190
-7.054378 2.215992 5.302127
-6.819838 2.106230 0.664376
-4.405257 2.281755 -0.076675
-4.171276 2.295423 2.737644
-5.784455 1.435201 -0.325754
-3.004627 2.247529 1.740298
-5.244842 1.610834 3.227119
-5.942091 1.243353 2.155027
-5.879647 1.077068 -0.461639
-6.485798 0.645781 3.525755
-6.917990 0.410106 0.127295
-7.079193 0.040711 0.650790
-6.135100 0.060531 3.496174
-7.823329 -0.699114 3.800178
-6.049844 0.312627 4.318707
-5.539396 0.400973 -0.702364
-6.810774 -0.266470 2.239259
-5.263462 0.345844 0.288522
-7.715636 -1.024551 0.387400
-6.929156 -0.685232 2.112407
-7.342032 -1.072656 2.880613
-6.161082 -0.662007 -0.676112
-6.543303 -0.860365 0.534072
-7.128168 -1.294403 1.066046
-7.012566 -1.727685 -0.118398
-6.173102 -0.829509 1.987306
-5.609828 -0.599997 4.725689
-7.092566 -2.140500 0.715803
-6.896448 -2.069175 1.920023
-5.587462 -1.232896 -0.355417
-7.081971 -2.589435 1.958893
-5.534355 -1.368176 3.900549
-7.393744 -3.439659 -0.590122
-6.352329 -2.374988 3.247296
-3.147931 0.738485 0.706910
-6.785475 -4.241403 -0.382625
-5.030554 -1.397953 3.304243
-5.152830 -1.391604 1.366847
-7.341100 -4.255867 3.267941
-6.129695 -3.226064 0.416529
-6.205449 -3.601918 1.242974
-6.879240 -5.076435 0.674725
-5.967923 -4.297632 5.646331
-6.420379 -4.629598 4.095799
-4.657977 -1.881095 2.527646
-4.555820 -2.198794 -0.549203
-4.869585 -2.864380 1.881639
-6.468599 -5.962750 2.344998
-6.254409 -6.179894 -0.455974
-4.382660 -2.463067 3.487597
-5.787651 -6.109909 -0.076685
-4.750042 -3.814270 4.362701
-5.030023 -4.433943 1.548423
-4.952656 -4.226084 3.825568
-4.956549 -4.445398 3.261703
-5.285959 -5.420739 2.955581
-4.488878 -4.538852 -0.758718
-3.832290 -2.137329 1.004594
-3.458632 -1.562642 0.056841
-4.267307 -4.169208 1.315885
-3.959217 -3.024192 1.873594
-4.711879 -7.227549 5.608631
-3.489683 -1.781209 1.237961
-4.195951 -0.113312 0.852792
-3.961804 -5.692521 2.006865
-3.823360 -4.537355 3.291063
-3.868474 -4.760462 4.224523
-7.362349 -4.774647 -0.535525
-5.861019 -4.658849 -0.754237
-4.151989 -4.082613 2.591231
-3.482012 -3.735478 0.553962
-3.511969 -5.855238 2.052361
-3.282462 -3.819298 3.236740
-3.317468 -4.021349 0.250339
-2.918195 -3.253549 3.279457
-2.533030 -6.334785 -0.038741
-2.444468 -6.948717 2.220359
-2.474881 -6.327903 1.673242
-2.320486 -5.852732 1.667269
-2.728902 -3.663194 3.056773
-2.560759 -5.139319 0.348494
-2.359437 -5.346213 2.044264
-2.362978 -4.394761 -0.337260
-2.654341 -2.587710 1.794647
-1.968731 -6.201610 2.273211
-2.093072 -4.984480 2.325353
-2.075181 -5.069218 3.261333
-1.507835 -7.166594 1.520971
-1.220847 -7.728575 1.893727
-2.294266 -3.460713 0.237634
-1.599733 -5.902841 3.303295
-1.152918 -5.249824 -0.345666
-2.017530 -3.467391 2.030766
-0.739429 -7.608697 1.311669
-0.795617 -6.971159 3.316648
-0.474656 -7.311690 3.373463
-1.753657 -4.074363 3.391551
-1.081064 -5.516180 -0.703535
-0.048232 -7.395546 4.436439
-2.224939 -4.193618 2.296033
-1.369868 -4.135745 3.603264
-0.603354 -5.622495 -0.316293
-1.114259 -4.581103 3.591774
0.746534 -7.409088 0.285013
-1.340806 -3.630692 2.316834
0.805190 -7.282288 0.640875
0.601773 -7.136236 0.550873
0.138060 -5.084633 3.765280
1.591256 -6.761217 1.218015
0.742103 -5.560582 2.311994
2.547021 -7.057986 3.564326
0.862254 -5.136938 0.006631
2.384985 -6.490673 4.528076
1.554172 -5.735200 2.328932
0.640312 -4.635274 2.462375
0.657718 -4.931883 0.278721
-2.211010 -6.159477 0.167222
0.922832 -4.866861 2.181376
1.145003 -5.020683 2.385525
3.128795 -6.735323 3.603502
1.307964 -4.825940 1.337479
0.529724 -5.120411 1.091856
3.658084 -6.587125 5.125076
2.261830 -5.453567 -0.685496
1.461251 -4.678817 -0.092107
3.761221 -6.331407 2.030377
2.243551 -5.194951 3.512266
-0.016269 -3.485811 2.969862
1.889778 -4.552146 -0.198956
2.360913 -4.868959 2.779319
2.471789 -5.004665 3.761756
3.754494 -5.500894 1.987223
4.807623 -6.116980 0.381884
3.945492 -5.458389 0.872950
0.750417 -6.577491 2.503008
5.559613 -4.437913 0.818986
3.506970 -4.806327 -0.093525
4.195537 -5.340131 2.845887
0.887550 -3.576442 0.790033
4.422171 -5.254308 1.737406
3.727971 -4.913813 3.107235
4.838248 -5.404579 4.609543
5.407708 -5.640128 2.873048
5.867101 -4.730861 2.055760
0.937869 -3.284454 1.293311
4.316082 -4.305573 5.020468
5.352923 -4.498090 2.073105
3.241446 -3.872513 4.119735
5.266031 -4.257510 3.145794
6.762693 -4.416314 2.827671
2.772874 -3.416227 1.950784
4.479222 -3.552231 4.229024
4.575607 -3.228687 1.481586
6.144624 -3.563794 4.174646
4.474676 -3.261189 1.433141
7.168145 -3.416532 3.189267
5.584261 -3.541654 3.177943
4.173620 -3.110164 2.908623
7.808059 -3.190696 4.193852
5.777936 -2.686945 0.528575
5.906235 -2.420650 0.342493
5.481634 -2.181622 0.929619
4.820237 -2.250193 1.296541
7.813967 -1.820847 4.452869
3.115152 -2.503603 1.736890
7.683924 -1.789272 5.098759
3.516493 -2.363683 2.920851
5.565400 -1.897420 0.005725
5.082213 -2.204106 1.104604
8.223308 -1.241265 1.532177
5.541573 -1.744160 2.632629
4.864223 -1.913821 4.707687
6.087555 -4.672854 2.283064
4.734230 -1.816585 3.875528
6.822123 -1.008728 4.792432
5.409322 -1.193554 4.239653
5.740334 -1.015407 4.878428
7.945728 -1.495017 3.910076
5.485889 -1.044533 4.390817
8.362592 0.513228 4.135657
4.393549 -1.259227 4.180957
2.970664 -3.235915 1.793256
5.928238 -0.485002 -0.313537
6.792619 -1.534414 -0.223358
4.165588 -1.083865 1.558585
4.838010 -0.866596 2.965523
7.914515 0.922322 5.589098
5.238183 -0.439825 3.184987
6.429426 0.488998 2.801183
7.129222 1.082919 2.185420
4.842321 -0.328919 0.952018
5.710339 0.420233 3.585143
6.311479 0.948712 2.449448
4.668471 -0.407054 1.030277
7.737341 2.228847 1.527039
6.334583 1.763164 2.222469
6.705959 1.871667 4.843693
4.279465 -0.174758 3.453017
7.335213 2.317192 4.604131
6.859471 2.482406 3.496128
6.896539 2.361242 4.668566
5.908505 1.605810 1.712268
5.912489 1.479896 -0.079494
6.455303 2.187476 -0.731743
7.112846 2.939124 0.702063
6.564653 2.845760 0.844884
4.283444 0.233658 0.836533
6.658812 3.210762 3.428322
6.476884 3.110681 1.456967
4.679165 1.081231 3.243908
3.339398 -0.603098 1.727964
6.393094 3.447833 4.999228
6.352846 3.605868 3.565010
5.151093 -0.154497 1.085493
5.510803 2.797255 0.225027
6.117354 3.837369 -0.462738
6.774173 -0.390711 0.639353
5.277536 2.579653 4.298236
7.747553 1.902174 4.901644
3.686888 0.693281 1.265556
5.512682 3.689750 2.837304
4.913432 2.647245 3.410876
5.036331 3.284547 4.536657
4.870356 3.461888 -0.610304
3.333638 0.521219 1.735977
5.523616 5.167244 2.587554
3.402978 4.815264 4.107049
4.777664 4.227027 3.291431
4.312675 3.008140 3.338081
4.741142 5.443118 2.607934
3.991508 3.139261 4.216545
3.795383 3.406711 -0.159731
3.434448 2.391453 3.443651
7.455842 1.656438 2.499618
3.950662 6.289100 3.744915
3.527057 4.452283 3.665559
3.732603 5.922924 0.606499
3.892093 7.000412 2.962839
3.419513 4.964128 4.244677
3.675559 6.946203 2.595759
3.113147 2.624559 1.362918
2.935595 1.399402 2.134233
2.919277 2.122408 0.334254
3.060016 3.637856 0.728551
3.057150 3.567192 1.085468
2.821338 2.419033 0.338230
2.759276 6.234316 -0.657747
2.469675 6.729416 0.359763
2.598468 3.005106 1.204513
2.255510 5.406779 -0.335934
2.216058 3.982873 3.740124
1.725774 7.126336 -0.563310
2.103123 4.132530 0.400002
1.345449 7.281681 2.324609
3.292727 1.439222 2.300851
2.482931 1.492156 1.950783
2.212520 6.484535 0.714848
1.272722 5.430579 -0.080025
0.708207 7.342457 0.629533
2.261537 1.894956 1.722396
2.124112 2.608084 2.094365
0.597960 5.897856 4.758290
1.748081 3.419673 0.086624
1.625291 4.181976 3.269831
0.948226 5.406665 4.633817
0.381074 7.075794 3.184624
0.932619 5.741029 3.267144
0.877099 5.436833 0.850097
0.540704 5.929480 4.657682
-0.324119 7.700669 -0.157433
0.767640 5.273581 3.568634
1.426540 3.193932 2.393445
-0.257582 5.821095 4.732081
0.112181 5.214353 2.359932
0.095366 5.174005 0.307355
-2.053807 7.623625 5.058895
-1.099668 5.908147 4.024659
0.059771 4.354549 -0.352724
-2.048265 7.106817 0.998266
-2.508664 6.970972 1.302977
0.009747 4.467488 1.429954
-0.801905 4.793473 3.526019
-1.099050 4.958036 -0.554364
-3.872506 7.086792 -0.117289
-0.556842 5.896966 1.857367
-3.589253 7.159749 4.376883
-3.263032 6.402288 -0.221091
-0.866897 4.585294 1.866013
-3.423423 6.583452 -0.385283
-3.269701 6.656206 4.343582
-0.908390 4.277452 0.574032
-2.530280 5.434623 0.462892
-2.769180 5.469190 3.173289
-3.688037 5.850546 5.221220
-0.701040 4.156012 0.616432
-0.983668 3.958061 -0.448885
-1.995964 4.520402 3.094512
-3.465357 5.404346 1.309259
-2.155795 4.589402 3.455084
-2.288565 4.645022 -0.361957
-2.662943 4.774365 1.832251
-2.028278 4.498046 3.357086
-2.949198 4.826578 0.561760
-1.822580 4.161847 -0.031656
-4.177899 5.106866 5.056456
-3.769428 5.050309 3.288318
-4.934606 5.281341 1.984025
-3.940505 4.711579 3.606769
-5.490073 5.267262 5.352418
-4.081958 4.835535 4.957428
-6.079627 5.258348 2.237610
-5.114874 5.273366 0.203953
-4.646517 4.585482 0.364135
-4.487705 4.497969 3.484750
-6.451401 3.942687 -0.437398
-1.886310 3.615378 2.170400
-5.620544 4.651483 4.608861
-5.199808 4.507849 4.934956
-5.610239 4.426404 0.891602
-5.237889 4.275010 4.872598
-4.313280 3.801635 0.044340
-2.738260 3.571874 2.945741
-4.210601 3.701497 0.138308
-4.590818 3.271682 2.506815
-3.358794 4.132732 0.599527
-6.951389 3.291360 0.724244
-2.877211 3.143654 2.224532
-6.564902 3.282081 3.532549
-7.136880 3.381298 4.909245
-6.918466 3.080465 3.717184
-7.485890 3.034286 -0.336134
-2.959326 2.884695 2.769460
-5.693052 3.338550 3.819321
